<svg width="89" height="91" viewBox="0 0 89 91" fill="none" xmlns="http://www.w3.org/2000/svg">
<path d="M12.1314 44C8.25717 38.1531 6.9263 32.6289 8.91681 28.3433C11.1184 23.6033 17.0116 21.1786 25 21" stroke="#5480FE" stroke-miterlimit="10"/>
<path d="M75.1436 44C78.9103 49.0852 80.079 53.8528 77.9306 57.6143C76.0399 60.9245 71.8154 63.0443 66 64" stroke="#5480FE" stroke-miterlimit="10"/>
<path d="M23 15.1164C29.4148 13.3691 37.716 13.6797 47 16" stroke="#5480FE" stroke-miterlimit="10"/>
<path d="M51.2806 67.638C45.972 66.7383 39.9663 64.7826 33.9081 61.7987C27.0101 58.4012 21.165 54.2228 17 50" stroke="#5480FE" stroke-miterlimit="10"/>
<path d="M29.7567 67.2716C25.0074 64.7415 20.7077 61.9286 17 59" stroke="#5480FE" stroke-miterlimit="10"/>
<path d="M62.446 77.0868C64.3491 77.0868 65.8919 75.5004 65.8919 73.5434C65.8919 71.5864 64.3491 70 62.446 70C60.5428 70 59 71.5864 59 73.5434C59 75.5004 60.5428 77.0868 62.446 77.0868Z" fill="#5480FE" fill-opacity="0.39"/>
<path d="M9.31277 54.8129C11.1424 54.8129 12.6255 53.2878 12.6255 51.4065C12.6255 49.5251 11.1424 48 9.31277 48C7.48318 48 6 49.5251 6 51.4065C6 53.2878 7.48318 54.8129 9.31277 54.8129Z" fill="#F2F2F2"/>
</svg>
