<svg width="1308" height="930" viewBox="0 0 1308 930" fill="none" xmlns="http://www.w3.org/2000/svg">
<g clip-path="url(#clip0)">
<path d="M611.606 410.203C611.606 590.737 506.818 653.773 377.556 653.773C248.294 653.773 143.506 590.737 143.506 410.203C143.506 229.668 377.556 0 377.556 0C377.556 0 611.606 229.668 611.606 410.203Z" fill="#F2F2F2"/>
<path d="M369.03 626.157L371.427 475.066L471.184 288.145L371.803 451.364L372.881 383.427L441.633 248.192L373.165 365.449L375.103 243.262L448.726 135.597L375.409 224.048L376.619 0L369.009 296.599L369.635 284.363L294.783 167.016L368.435 307.851L361.46 444.313L361.253 440.692L274.961 317.201L360.991 453.487L360.119 470.553L359.963 470.81L360.034 472.211L342.34 818.428H365.981L368.817 639.6L454.635 503.647L369.03 626.157Z" fill="#3F3D56"/>
<path d="M1308 484.144C1308 631.92 1222.23 683.518 1116.42 683.518C1010.61 683.518 924.838 631.92 924.838 484.144C924.838 336.368 1116.42 148.374 1116.42 148.374C1116.42 148.374 1308 336.368 1308 484.144Z" fill="#F2F2F2"/>
<path d="M1109.44 660.913L1111.4 537.238L1193.06 384.234L1111.71 517.837L1112.59 462.228L1168.87 351.53L1112.83 447.511L1114.41 347.495L1174.67 259.367L1114.66 331.769L1115.65 148.374L1109.42 391.154L1109.94 381.139L1048.66 285.084L1108.95 400.365L1103.24 512.066L1103.07 509.101L1032.44 408.018L1102.86 519.575L1102.15 533.544L1102.02 533.755L1102.08 534.901L1087.59 818.295H1106.94L1109.27 671.916L1179.51 560.633L1109.44 660.913Z" fill="#3F3D56"/>
<path d="M647.234 930.101C1004.69 930.101 1294.47 896.38 1294.47 854.784C1294.47 813.188 1004.69 779.467 647.234 779.467C289.777 779.467 0 813.188 0 854.784C0 896.38 289.777 930.101 647.234 930.101Z" fill="#3F3D56"/>
<path d="M1041.7 874.627C1102.93 874.627 1152.57 872.057 1152.57 868.887C1152.57 865.717 1102.93 863.146 1041.7 863.146C980.463 863.146 930.823 865.717 930.823 868.887C930.823 872.057 980.463 874.627 1041.7 874.627Z" fill="#3F3D56"/>
<path d="M640.487 930C701.722 930 751.362 927.43 751.362 924.26C751.362 921.089 701.722 918.519 640.487 918.519C579.253 918.519 529.613 921.089 529.613 924.26C529.613 927.43 579.253 930 640.487 930Z" fill="#3F3D56"/>
<path d="M336.1 890.947C475.998 890.947 589.408 885.075 589.408 877.832C589.408 870.589 475.998 864.717 336.1 864.717C196.202 864.717 82.7923 870.589 82.7923 877.832C82.7923 885.075 196.202 890.947 336.1 890.947Z" fill="#3F3D56"/>
<path d="M98.4615 750.924L70.4496 750.586L69.8583 801.989L97.8701 802.327L98.4615 750.924Z" fill="#2F2E41"/>
<path d="M154.485 751.6L126.473 751.262L125.882 802.665L153.894 803.003L154.485 751.6Z" fill="#2F2E41"/>
<path d="M172.575 802.63C172.632 797.679 162.227 793.539 149.335 793.383C136.443 793.228 125.946 797.115 125.889 802.067C125.832 807.019 136.237 811.159 149.129 811.314C162.021 811.47 172.518 807.582 172.575 802.63Z" fill="#2F2E41"/>
<path d="M115.929 685.375C133.335 685.375 147.445 670.924 147.445 653.097C147.445 635.27 133.335 620.818 115.929 620.818C98.5239 620.818 84.4139 635.27 84.4139 653.097C84.4139 670.924 98.5239 685.375 115.929 685.375Z" fill="white"/>
<path d="M115.929 663.856C121.731 663.856 126.435 659.039 126.435 653.097C126.435 647.154 121.731 642.337 115.929 642.337C110.128 642.337 105.424 647.154 105.424 653.097C105.424 659.039 110.128 663.856 115.929 663.856Z" fill="#3F3D56"/>
<path d="M205.738 756.921C205.738 822.764 167.522 845.754 120.377 845.754C119.285 845.754 118.195 845.742 117.106 845.717C114.922 845.669 112.758 845.562 110.621 845.413C68.0734 842.329 35.0172 818.156 35.0172 756.921C35.0172 693.549 114.085 613.585 120.024 607.667L120.034 607.656C120.263 607.427 120.377 607.315 120.377 607.315C120.377 607.315 205.738 691.077 205.738 756.921Z" fill="#6C63FF"/>
<path d="M121.853 835.681L153.073 791.001L121.775 840.587L121.691 845.717C119.507 845.669 117.343 845.562 115.206 845.413L118.571 779.538L118.545 779.026L118.602 778.93L118.919 772.709L87.543 723L119.018 768.043L119.091 769.364L121.634 719.591L94.7722 668.226L121.962 710.855L124.609 607.667L124.619 607.315V607.656L124.177 689.027L150.92 656.768L124.068 696.037L123.361 740.6L148.33 697.832L123.257 747.157L122.862 771.931L159.111 712.405L122.726 780.576L121.853 835.681Z" fill="#3F3D56"/>
<path d="M852.536 810.706C864.86 806.826 873.699 799.844 872.279 795.111C870.859 790.378 859.717 789.685 847.393 793.564C835.069 797.443 826.229 804.425 827.65 809.159C829.07 813.892 840.212 814.585 852.536 810.706Z" fill="#2F2E41"/>
<path d="M827.015 684.676C844.42 684.676 858.53 670.225 858.53 652.398C858.53 634.571 844.42 620.119 827.015 620.119C809.609 620.119 795.499 634.571 795.499 652.398C795.499 670.225 809.609 684.676 827.015 684.676Z" fill="white"/>
<path d="M636.449 802.03C636.449 862.471 601.369 883.575 558.092 883.575C557.09 883.575 556.089 883.564 555.09 883.541C553.084 883.497 551.098 883.399 549.136 883.262C510.08 880.431 479.736 858.242 479.736 802.03C479.736 743.858 552.316 670.454 557.768 665.022L557.777 665.012C557.987 664.802 558.092 664.699 558.092 664.699C558.092 664.699 636.449 741.589 636.449 802.03Z" fill="#6C63FF"/>
<path d="M555.585 886.284L584.244 845.269L555.514 890.787L555.437 895.496C553.432 895.452 551.446 895.354 549.484 895.217L552.573 834.747L552.549 834.277L552.601 834.189L552.893 828.478L524.091 782.848L552.983 824.195L553.05 825.407L555.385 779.718L530.727 732.567L555.685 771.699L558.115 676.977L558.125 676.654V676.967L557.719 751.662L582.267 722.05L557.619 758.096L556.97 799.003L579.89 759.744L556.874 805.023L556.511 827.764L589.787 773.122L556.387 835.7L555.585 886.284Z" fill="#3F3D56"/>
<path opacity="0.1" d="M796.058 887.063C865.035 887.063 920.952 870.47 920.952 850.002C920.952 829.534 865.035 812.941 796.058 812.941C727.08 812.941 671.163 829.534 671.163 850.002C671.163 870.47 727.08 887.063 796.058 887.063Z" fill="black"/>
<path d="M720.087 655.37C723.193 649.817 724.798 643.518 724.736 637.119C724.736 620.625 714.764 607.254 702.462 607.254C690.161 607.254 680.188 620.625 680.188 637.119C680.127 643.518 681.732 649.817 684.837 655.37C681.789 660.946 680.188 667.229 680.188 673.62C680.188 680.011 681.789 686.295 684.837 691.871C681.789 697.447 680.188 703.731 680.188 710.121C680.188 716.512 681.789 722.796 684.837 728.372C681.789 733.948 680.188 740.232 680.188 746.623C680.188 753.013 681.789 759.297 684.837 764.873C681.732 770.425 680.127 776.725 680.188 783.124C680.188 799.617 690.161 812.988 702.462 812.988C714.764 812.988 724.736 799.617 724.736 783.124C724.798 776.725 723.193 770.425 720.087 764.873C723.135 759.297 724.736 753.013 724.736 746.623C724.736 740.232 723.135 733.948 720.087 728.372C723.135 722.796 724.736 716.512 724.736 710.121C724.736 703.731 723.135 697.447 720.087 691.871C723.135 686.295 724.736 680.011 724.736 673.62C724.736 667.229 723.135 660.946 720.087 655.37V655.37Z" fill="#3F3D56"/>
<path d="M702.462 630.482C714.764 630.482 724.736 617.112 724.736 600.618C724.736 584.124 714.764 570.753 702.462 570.753C690.161 570.753 680.188 584.124 680.188 600.618C680.188 617.112 690.161 630.482 702.462 630.482Z" fill="#3F3D56"/>
<path d="M702.462 593.981C714.764 593.981 724.736 580.61 724.736 564.117C724.736 547.623 714.764 534.252 702.462 534.252C690.161 534.252 680.188 547.623 680.188 564.117C680.188 580.61 690.161 593.981 702.462 593.981Z" fill="#3F3D56"/>
<path d="M785.845 314.327C788.888 310.359 791.659 306.181 794.14 301.821L735.613 291.977L798.911 292.459C804.983 278.927 808.296 264.269 808.646 249.381C808.997 234.493 806.377 219.689 800.949 205.873L716.027 250.993L794.345 192.03C787.007 179.044 777.138 167.744 765.351 158.835C753.564 149.926 740.112 143.598 725.833 140.245C711.554 136.893 696.754 136.588 682.355 139.35C667.956 142.111 654.266 147.88 642.139 156.296C630.012 164.713 619.706 175.597 611.865 188.27C604.024 200.944 598.815 215.135 596.562 229.96C594.309 244.786 595.061 259.928 598.771 274.442C602.481 288.957 609.069 302.534 618.125 314.327C613.382 320.503 609.302 327.184 605.957 334.256L681.929 374.681L600.922 346.835C595.234 364.057 593.828 382.459 596.832 400.376C599.836 418.294 607.154 435.162 618.125 449.453C605.747 465.572 598.046 484.933 595.905 505.322C593.763 525.712 597.266 546.308 606.014 564.754C614.762 583.201 628.401 598.754 645.373 609.635C662.344 620.516 681.962 626.287 701.985 626.287C722.007 626.287 741.626 620.516 758.597 609.635C775.568 598.754 789.208 583.201 797.956 564.754C806.704 546.308 810.207 525.712 808.065 505.322C805.923 484.933 798.223 465.572 785.845 449.453C800.636 430.191 808.677 406.396 808.677 381.89C808.677 357.384 800.636 333.59 785.845 314.327L785.845 314.327Z" fill="#6C63FF"/>
<path opacity="0.1" d="M603.805 44.5445C603.606 140.897 160.042 253.806 240.072 329.449C173.244 392.808 131.673 468.912 120.11 549.059C108.548 629.206 127.461 710.163 174.688 782.672C221.915 855.181 295.55 916.317 387.173 959.089C478.796 1001.86 584.71 1024.54 692.805 1024.54C800.9 1024.54 906.814 1001.86 998.437 959.089C1090.06 916.317 1163.69 855.181 1210.92 782.672C1258.15 710.163 1277.06 629.206 1265.5 549.059C1253.94 468.912 1236.13 249.403 1169.3 186.044C1246.51 112.958 603.805 -3.66578 603.805 44.5445Z" fill="#6C63FF"/>
<path d="M1073.9 527.037L850.319 778.516L756.348 672.817C750.324 666.041 742.154 662.234 733.634 662.234C725.115 662.234 716.944 666.041 710.92 672.817V672.817C707.937 676.172 705.571 680.155 703.956 684.539C702.342 688.922 701.511 693.621 701.511 698.366C701.511 703.111 702.342 707.809 703.956 712.193C705.571 716.576 707.937 720.559 710.92 723.915L832.846 861.055C837.441 866.224 843.673 869.128 850.171 869.13C856.669 869.132 862.902 866.231 867.5 861.065L1119.3 578.135C1122.29 574.782 1124.66 570.799 1126.27 566.416C1127.89 562.033 1128.72 557.334 1128.72 552.589C1128.72 547.843 1127.89 543.144 1126.28 538.76C1124.66 534.376 1122.3 530.392 1119.31 527.037V527.037C1113.29 520.263 1105.12 516.457 1096.61 516.457C1088.09 516.457 1079.92 520.263 1073.9 527.037Z" fill="#57B894"/>
</g>
<defs>
<clipPath id="clip0">
<rect width="1308" height="930" fill="white"/>
</clipPath>
</defs>
</svg>
