<svg xmlns="http://www.w3.org/2000/svg" width="232.145" height="192.369" viewBox="0 0 232.145 192.369">
  <g id="Group_74" data-name="Group 74" transform="translate(-0.004 -1.132)">
    <ellipse id="Ellipse_62" data-name="Ellipse 62" cx="23.717" cy="2.338" rx="23.717" ry="2.338" transform="translate(141.282 188.825)" fill="#0c40ff" opacity="0.1"/>
    <path id="Path_245" data-name="Path 245" d="M199.684,38.2c10.445-3.883,23.162-.543,34.021,4.327,34.107,15.3,58.954,44.342,78.7,73.93,7.148,10.714,13.937,21.9,16.624,33.859,5.471,24.343-8.8,49.545-33.068,58.376-8.253,3.006-17.32,4.239-26.4,4.926-16.148,1.223-32.867.738-48.886-3.792-11.424-3.237-22.23-8.445-32.594-14.2-28.945-16.076-55.379-36.953-74.413-62.455-8.348-11.185-15.41-23.8-15.614-36.7S106.255,70.6,120.093,68.4c5.721-.906,11.773.037,17.677,1.008,8.693,1.431,17.5,2.937,26.1,2.312,8.878-.65,20.424-4.119,22.043-12.594C187.622,50.031,189.252,42.081,199.684,38.2Z" transform="translate(-98.04 -35.373)" fill="#0c40ff" opacity="0.1"/>
    <path id="Path_246" data-name="Path 246" d="M341.357,800.372s11.16-.673,9.844,7.148a1.905,1.905,0,0,1-.992,2.01s-.018-.58-1.145-.384a5.043,5.043,0,0,1-1.212.06,2.528,2.528,0,0,1-1.482-.613h0s-3.138-1.3-4.357-6.424c0,0-.9-1.117-.867-1.406l1.882.8a3.38,3.38,0,0,0-.136,2.488s.06-2.437.423-2.382c.072.012.978.463.978.463s-1.108,2.366-.273,4.086c0,0-.317-2.916.617-3.915l1.327.775s-1.295,2.444-.416,4.438c0,0-.231-3.059.694-4.25l1.2.925s-1.216,2.41-.474,4.065c0,0,.095-3.564.733-3.832a7.208,7.208,0,0,1,1.212,1.309s-.832,1.748-.317,2.671c0,0,.317-2.373.578-2.384a7.929,7.929,0,0,1,1.156,2.65,5.722,5.722,0,0,0-.9-2.8,3.156,3.156,0,0,1,1.6.83s-.164-1.112-1.862-1.209a7.277,7.277,0,0,0-1.1-1.265,6.872,6.872,0,0,1,2.715.314s-.9-1.05-3.025-.573L346.578,803a9.762,9.762,0,0,1,3.168.032s-1.085-.925-3.487-.252l-1.29-.772A11.673,11.673,0,0,1,348,801.75a4.646,4.646,0,0,0-3.406.053l-.925-.414s1.387-.273,1.8-.317.428-.155.428-.155a4.815,4.815,0,0,0-2.611.289A10.716,10.716,0,0,1,341.357,800.372Z" transform="translate(-284.924 -622.586)" fill="#0c40ff"/>
    <ellipse id="Ellipse_63" data-name="Ellipse 63" cx="7.899" cy="1.334" rx="7.899" ry="1.334" transform="translate(56.22 186.291)" fill="#0c40ff" opacity="0.1"/>
    <path id="Path_247" data-name="Path 247" d="M277,777.643s6.292-.379,5.55,4.031a1.071,1.071,0,0,1-.557,1.133s-.012-.326-.645-.215a2.8,2.8,0,0,1-.682.032,1.4,1.4,0,0,1-.837-.345h0s-1.767-.733-2.46-3.624c0,0-.509-.631-.49-.793l1.064.462a1.911,1.911,0,0,0-.079,1.4s.035-1.376.231-1.344c.042,0,.553.266.553.266a3.153,3.153,0,0,0-.153,2.313s-.18-1.644.347-2.208l.747.437a3.3,3.3,0,0,0-.231,2.5,4.7,4.7,0,0,1,.391-2.4l.678.527a3.176,3.176,0,0,0-.266,2.292s.053-2.01.414-2.16a4.119,4.119,0,0,1,.682.738s-.462.985-.178,1.505c0,0,.178-1.337.326-1.344a4.421,4.421,0,0,1,.65,1.494,3.237,3.237,0,0,0-.509-1.579,1.765,1.765,0,0,1,.9.462s-.09-.627-1.05-.682a4.088,4.088,0,0,0-.617-.712,3.866,3.866,0,0,1,1.531.176,1.721,1.721,0,0,0-1.707-.324l-.668-.546a5.536,5.536,0,0,1,1.788.019,2.176,2.176,0,0,0-1.968-.141l-.726-.437a6.607,6.607,0,0,1,1.7-.146,2.611,2.611,0,0,0-1.919.03l-.52-.231s.784-.155,1.013-.178.243-.088.243-.088a2.726,2.726,0,0,0-1.473.164A6.1,6.1,0,0,1,277,777.643Z" transform="translate(-235.519 -605.119)" fill="#0c40ff"/>
    <ellipse id="Ellipse_64" data-name="Ellipse 64" cx="4.454" cy="0.754" rx="4.454" ry="0.754" transform="translate(41.362 177.316)" fill="#0c40ff" opacity="0.1"/>
    <path id="Path_248" data-name="Path 248" d="M946.356,795.966s7.6-.462,6.706,4.856a1.3,1.3,0,0,1-.675,1.369s-.014-.4-.779-.261a3.425,3.425,0,0,1-.826.039,1.7,1.7,0,0,1-1.008-.416h0s-2.137-.881-2.967-4.373c0,0-.615-.761-.59-.955l1.281.546a2.3,2.3,0,0,0-.092,1.7s.042-1.66.287-1.619c.051,0,.666.319.666.319a3.782,3.782,0,0,0-.185,2.775s-.215-1.984.421-2.664l.9.525a3.981,3.981,0,0,0-.282,3.022s-.155-2.081.463-2.893l.818.638a3.915,3.915,0,0,0-.324,2.775s.067-2.423.5-2.609a4.983,4.983,0,0,1,.823.89s-.567,1.191-.215,1.82c0,0,.215-1.619.393-1.619a5.373,5.373,0,0,1,.786,1.8,3.886,3.886,0,0,0-.613-1.906,2.148,2.148,0,0,1,1.092.564s-.111-.756-1.27-.823a4.93,4.93,0,0,0-.745-.86,4.678,4.678,0,0,1,1.85.213,2.082,2.082,0,0,0-2.06-.389l-.807-.659a6.661,6.661,0,0,1,2.157.021,2.625,2.625,0,0,0-2.375-.171l-.879-.525a8.008,8.008,0,0,1,2.06-.178,3.15,3.15,0,0,0-2.312.037l-.629-.282s.946-.187,1.223-.215.291-.106.291-.106a3.283,3.283,0,0,0-1.776.2A7.686,7.686,0,0,1,946.356,795.966Z" transform="translate(-755.075 -637.203)" fill="#0c40ff"/>
    <ellipse id="Ellipse_65" data-name="Ellipse 65" cx="5.377" cy="0.909" rx="5.377" ry="0.909" transform="translate(191.136 164.554)" fill="#0c40ff" opacity="0.1"/>
    <path id="Path_264" data-name="Path 264" d="M719.186,448.533l-2.463,1.725s-.021-.345-.083-.816a4.985,4.985,0,0,0,2.169-2.012C719.036,448.045,719.186,448.533,719.186,448.533Z" transform="translate(-573.587 -351.273)" fill="#0c40ff" opacity="0.1"/>
    <path id="Path_266" data-name="Path 266" d="M743.3,491.33s.708,2.632.254,2.914Z" transform="translate(-594.082 -385.021)" fill="#0c40ff" opacity="0.1"/>
    <path id="Path_272" data-name="Path 272" d="M754.151,492.045a4.06,4.06,0,0,0,1.6.835,1.045,1.045,0,0,1-.462-.231c-.326-.231-.636-.483-.95-.728a2.983,2.983,0,0,0-.883-.61A4.868,4.868,0,0,0,754.151,492.045Z" transform="translate(-601.892 -385.006)" fill="#0c40ff" opacity="0.1"/>
    <path id="Path_274" data-name="Path 274" d="M835.187,539.772a2.354,2.354,0,0,0,1.33-.622c-.752.095-1.464.391-2.2.546a3.274,3.274,0,0,1-2.053-.19A5.049,5.049,0,0,0,835.187,539.772Z" transform="translate(-662.47 -421.783)" fill="#0c40ff" opacity="0.1"/>
    <path id="Path_275" data-name="Path 275" d="M823.476,512.016a.515.515,0,0,1-.381-.095q-.846-.486-1.67-1.013a11.089,11.089,0,0,1-1.635-1.128A8.317,8.317,0,0,0,823.476,512.016Z" transform="translate(-652.884 -399.205)" fill="#0c40ff" opacity="0.1"/>
    <path id="Path_276" data-name="Path 276" d="M837.4,543.533a3.522,3.522,0,0,0,.883-.072,1.184,1.184,0,0,0,.726-.476.416.416,0,0,0-.308.049,5.189,5.189,0,0,1-2.84.34A4.1,4.1,0,0,0,837.4,543.533Z" transform="translate(-665.238 -424.722)" fill="#0c40ff" opacity="0.1"/>
    <path id="Path_278" data-name="Path 278" d="M790.148,606.4a9.342,9.342,0,0,0-1.3.268,8.672,8.672,0,0,1-1.364.053,7.609,7.609,0,0,1-2.629-.536C786.614,606.28,788.383,606.333,790.148,606.4Z" transform="translate(-626.023 -473.32)" fill="#0c40ff" opacity="0.1"/>
    <path id="Path_290" data-name="Path 290" d="M882.73,522.59a.978.978,0,0,0,.807-.571,3.2,3.2,0,0,0,.252-1,14.984,14.984,0,0,1,.349-1.718.8.8,0,0,0-.049-.694,2.35,2.35,0,0,0-.25-.513,3.079,3.079,0,0,0-.354,1.08c-.106.384-.2.77-.3,1.156C883.142,520.511,882.758,522.59,882.73,522.59Z" transform="translate(-701.269 -405.593)" fill="#0c40ff" opacity="0.1"/>
    <path id="Path_294" data-name="Path 294" d="M594.374,124.731h-16V108.969h16.007Zm-.231-23.765H578.61c0-24.494,23.282-23.062,23.282-38.558A15.443,15.443,0,0,0,586.37,47.034,15.841,15.841,0,0,0,570.851,62.65H555.33a31.041,31.041,0,0,1,62.081-.243c0,19.376-23.28,21.582-23.28,38.558Z" transform="translate(-412.579 26.39)" fill="#0c40ff"/>
    <path id="Path_295" data-name="Path 295" d="M345.754,334.054h-4.125v-4.075h4.125Zm-.062-6.128h-4c0-6.313,6-5.945,6-9.944a3.982,3.982,0,0,0-4-3.966,4.086,4.086,0,0,0-3.991,4.024h-4a8,8,0,1,1,16.006-.062c-.013,4.995-6.013,5.564-6.013,9.939Z" transform="translate(-280.738 -245.627)" fill="#0c40ff" opacity="0.1"/>
    <path id="Path_296" data-name="Path 296" d="M480.773,456.494h-4.125v-4.063h4.125Zm-.06-6.126h-4c0-6.315,6-5.945,6-9.944a3.98,3.98,0,0,0-4-3.964,4.086,4.086,0,0,0-4.012,4.028h-4a8,8,0,1,1,16.006-.062C486.711,445.422,480.713,445.993,480.713,450.369Z" transform="translate(-384.52 -339.761)" fill="#0c40ff" opacity="0.1"/>
    <path id="Path_297" data-name="Path 297" d="M572.153,261.792h-2.99v-2.939h2.99Zm-.044-4.442h-2.9c0-4.574,4.35-4.308,4.35-7.2a2.886,2.886,0,0,0-2.9-2.872,2.96,2.96,0,0,0-2.9,2.918h-2.9a5.8,5.8,0,1,1,11.6-.046C576.455,253.765,572.109,254.179,572.109,257.35Z" transform="translate(-456.906 -195.17)" fill="#0c40ff" opacity="0.1"/>
    <path id="Path_298" data-name="Path 298" d="M803.5,305.215h-1.69V303.55h1.69Zm-.026-2.509h-1.649c0-2.585,2.458-2.435,2.458-4.072a1.619,1.619,0,0,0-1.637-1.619,1.674,1.674,0,0,0-1.64,1.649h-1.64a3.279,3.279,0,0,1,6.556-.025C805.935,300.671,803.477,300.913,803.477,302.705Z" transform="translate(-637.186 -234.444)" fill="#0c40ff" opacity="0.1"/>
    <path id="Path_299" data-name="Path 299" d="M915.293,632.685H913.6V631.02h1.69Zm-.025-2.509h-1.64c0-2.588,2.461-2.435,2.461-4.072a1.63,1.63,0,0,0-1.639-1.619,1.672,1.672,0,0,0-1.64,1.649h-1.64a3.279,3.279,0,0,1,6.556-.026c.009,2.042-2.449,2.276-2.449,4.068Z" transform="translate(-723.132 -486.188)" fill="#0c40ff" opacity="0.1"/>
  </g>
</svg>
