<svg width="937" height="638" viewBox="0 0 937 638" fill="none" xmlns="http://www.w3.org/2000/svg">
<path opacity="0.1" d="M711.121 492.093C708.848 494.377 706.525 496.596 704.151 498.75C703.752 499.119 703.34 499.474 702.934 499.851C694.467 507.359 685.577 514.224 676.322 520.4L674.592 521.552C674.174 521.841 673.762 522.109 673.325 522.377C663.655 528.759 653.625 534.633 643.474 540.196L643.366 540.261L642.6 540.674C634.413 545.16 626.104 549.453 617.673 553.552L617.47 553.639C613.668 555.469 609.866 557.251 606.065 558.985C604.512 559.709 602.953 560.383 601.395 561.071C598.461 562.353 595.521 563.613 592.556 564.823L592.188 564.982L591.554 565.236L590.762 565.569C583.028 568.727 575.19 571.643 567.248 574.319L567.109 574.362C561.571 576.207 555.997 577.914 550.387 579.483L549.621 579.7C541.383 581.975 533.013 583.93 524.592 585.495L522.653 585.85C516.494 586.956 510.293 587.859 504.05 588.559C468.953 592.434 433.438 589.283 398.556 583.88C328.122 572.957 258.619 552.48 195.23 520.385C183.064 514.229 171.135 507.637 159.442 500.611C159.347 500.553 159.265 500.495 159.17 500.445C152.17 496.239 145.266 491.857 138.457 487.298C136.461 485.98 134.477 484.633 132.507 483.278C130.082 481.608 127.668 479.917 125.264 478.208C122.096 475.948 118.928 473.63 115.76 471.262L114.277 470.132L113.707 469.69C112.902 469.074 112.11 468.459 111.312 467.836C81.531 444.657 54.9755 416.568 42.4296 381.417C27.9321 340.854 37.2085 289.427 73.1164 265.452C85.4596 257.195 99.805 252.711 114.303 249.01L115.785 248.633C118.237 248.018 120.69 247.424 123.129 246.83C131.677 244.758 140.269 242.701 148.778 240.405C153.214 239.21 157.605 237.957 161.971 236.602L163.758 236.037C174.286 232.808 184.583 228.663 194.558 223.637H194.622C195.693 223.094 196.751 222.529 197.79 221.949C198.462 221.587 199.133 221.225 199.805 220.827C210.577 214.699 221.982 206.202 230.758 196.076C231.461 195.265 232.145 194.439 232.811 193.614C233.324 192.969 233.831 192.317 234.319 191.665C240.471 183.466 244.729 174.361 245.54 164.699C245.814 161.452 245.686 158.177 245.16 154.971C244.165 148.894 243.202 142.947 242.493 137.145C241.168 126.244 240.718 115.821 242.556 105.775C244.425 95.5329 248.664 85.6748 256.756 76.1137C257.977 74.6651 259.292 73.2164 260.703 71.7678C267.247 65.2051 274.651 59.8573 282.646 55.9196C283.634 55.4367 284.629 54.9538 285.63 54.4709C307.858 44.1855 334.566 42.0415 359.518 43.4612C382.83 44.8326 405.994 48.5164 428.749 54.4709C430.555 54.9345 432.361 55.4198 434.154 55.9196C453.51 61.2796 472.556 68.012 491.181 76.0775C539.578 96.8874 585.256 125.781 627.931 157.665C628.349 157.977 628.768 158.288 629.198 158.607C630.981 159.935 632.753 161.268 634.515 162.605C637.924 165.189 641.303 167.789 644.653 170.406L646.915 172.166C648.03 173.036 649.139 173.907 650.241 174.781L653.638 177.468C653.798 177.578 653.95 177.702 654.094 177.838L656.983 180.127C658.656 181.46 660.316 182.799 661.983 184.147L665.556 187.044C666.298 187.652 667.045 188.254 667.787 188.869L671.588 192.042L672.438 192.766C672.615 192.911 672.792 193.056 672.963 193.215L673.071 193.295C683.374 201.936 693.43 210.896 702.852 220.392L704.068 221.623L704.195 221.754C705.222 222.797 706.248 223.854 707.256 224.919C719.561 237.725 730.586 251.487 739.596 266.698C780.985 336.957 768.699 434.242 711.121 492.093Z" fill="#5480FE"/>
<path d="M641.342 250.265C641.517 250.265 641.66 250.117 641.66 249.936C641.66 249.754 641.517 249.606 641.342 249.606C641.166 249.606 641.024 249.754 641.024 249.936C641.024 250.117 641.166 250.265 641.342 250.265Z" fill="#E6E8EC"/>
<path d="M385.084 435.228C385.084 435.228 394.053 428.565 403.374 432.694C403.374 432.694 400.764 438.42 389.185 438.344L385.084 435.228Z" fill="#5480FE"/>
<path d="M383.967 435.616C383.967 435.616 381.569 446.788 388.859 454.034C388.859 454.034 392.936 449.305 388.313 438.301L383.967 435.616Z" fill="#5480FE"/>
<path d="M372.078 425.449C372.078 425.449 372.412 416.016 393.034 418.321C393.034 418.321 393.36 424.393 386.266 427.551C379.172 430.71 375.788 428.421 372.078 425.449Z" fill="#5480FE"/>
<path d="M370.814 425.406C370.814 425.406 362.253 428.632 370.717 448.249C370.717 448.249 376.424 446.695 377.109 438.732C377.794 430.769 374.679 428.176 370.814 425.406Z" fill="#5480FE"/>
<path d="M358.714 412.554C358.714 412.554 356.969 397.125 377.99 397.877C377.99 397.877 379.996 411.828 362.554 416.126L358.714 412.554Z" fill="#5480FE"/>
<path d="M344.216 395.631C344.216 395.631 346.442 377.973 367.585 382.373C367.585 382.373 368.221 397.573 347.787 399.676L344.216 395.631Z" fill="#5480FE"/>
<path d="M333.428 377.965C333.428 377.965 337.603 360.653 358.551 364.985C358.551 364.985 354.18 380.54 334.904 381.03L333.428 377.965Z" fill="#5480FE"/>
<path d="M323.162 360.704C323.162 360.704 327.239 342.784 347.436 347.319C347.436 347.319 341.37 364.428 324.605 363.676L323.162 360.704Z" fill="#5480FE"/>
<path d="M316.337 344.195C316.337 344.195 319.15 322.382 338.035 326.419C338.035 326.419 333.338 346.365 317.845 347.294L316.337 344.195Z" fill="#5480FE"/>
<path d="M309.781 324.172C309.781 324.172 313.312 302.14 332.433 307.747C332.433 307.747 325.788 328.699 311.233 327.17L309.781 324.172Z" fill="#5480FE"/>
<path d="M305.484 305.493C305.484 305.493 311.567 283.359 326.212 283.368C326.212 283.368 320.014 306.734 306.87 309.825L305.484 305.493Z" fill="#5480FE"/>
<path d="M302.524 287.176C302.524 287.176 309.047 260.567 321.017 262.121C321.017 262.121 316.573 282.439 303.078 291.255L302.524 287.176Z" fill="#5480FE"/>
<path d="M300.412 265.263C300.412 265.263 306.626 243.053 318.351 241.719C318.351 241.719 314.364 263.481 300.893 270.946L300.412 265.263Z" fill="#5480FE"/>
<path d="M298.235 244.869C298.235 244.869 306.185 222.575 313.931 221.773C313.931 221.773 310.923 243.535 299.14 248.441L298.235 244.869Z" fill="#5480FE"/>
<path d="M296.555 225.868C296.555 225.868 301.064 201.81 308.737 199.53C308.737 199.53 308.403 219.071 297.403 227.617L296.555 225.868Z" fill="#5480FE"/>
<path d="M292.715 201.067C292.715 201.067 297.68 181.838 303.853 178.697C303.853 178.697 303.437 201.143 294.345 205.652L292.715 201.067Z" fill="#5480FE"/>
<path d="M289.69 184.794L287.309 151.328C287.309 151.328 299.956 176.155 290.741 190.646L289.69 184.794Z" fill="#5480FE"/>
<path d="M279.391 151.851C279.391 151.851 270.046 127.725 267.975 126.441C267.975 126.441 285.099 141.642 284.283 162.137L279.391 151.851Z" fill="#5480FE"/>
<path d="M358.135 412.461C358.135 412.461 343.197 411.042 344.444 432.779C344.444 432.779 357.964 434.468 361.682 416.345L358.135 412.461Z" fill="#5480FE"/>
<path d="M343.49 395.073C343.49 395.073 326.309 395.698 328.535 417.874C328.535 417.874 343.05 419.968 347.037 399.11L343.49 395.073Z" fill="#5480FE"/>
<path d="M333.314 379.417C333.314 379.417 317.438 372.459 308.183 392.396C308.183 392.396 322.819 398.139 334.806 382.516L333.314 379.417Z" fill="#5480FE"/>
<path d="M322.819 360.881C322.819 360.881 306.552 353.458 297.884 372.923C297.884 372.923 314.739 378.193 324.246 363.854L322.819 360.881Z" fill="#5480FE"/>
<path d="M316.557 344.659C316.557 344.659 300.632 330.067 288.939 345.926C288.939 345.926 305.101 357.807 317.389 348.012L316.557 344.659Z" fill="#5480FE"/>
<path d="M310.637 323.623C310.637 323.623 294.598 308.685 283.036 325.431C283.036 325.431 300.861 337.498 311.306 326.858L310.637 323.623Z" fill="#5480FE"/>
<path d="M307.049 304.792C307.049 304.792 294.419 285.859 280.565 290.74C280.565 290.74 293.677 310.805 307.082 309.318L307.049 304.792Z" fill="#5480FE"/>
<path d="M302.866 287.041C302.866 287.041 289.959 263.059 278.771 267.754C278.771 267.754 288.116 286.205 303.331 291.137L302.866 287.041Z" fill="#5480FE"/>
<path d="M301.187 263.979C301.187 263.979 288.14 245.224 276.676 248.036C276.676 248.036 287.472 267.146 302.589 269.502L301.187 263.979Z" fill="#5480FE"/>
<path d="M299.523 244.388C299.523 244.388 289.167 223.175 281.38 223.276C281.38 223.276 286.77 244.54 299.009 248.027L299.523 244.388Z" fill="#5480FE"/>
<path d="M296.922 225.379C296.922 225.379 285.507 203.929 277.499 204.208C277.499 204.208 283.631 222.693 296.637 227.321L296.922 225.379Z" fill="#5480FE"/>
<path d="M294.468 202.333C294.468 202.333 285.849 184.549 279.195 182.767C279.195 182.767 283.982 204.664 293.775 207.172L294.468 202.333Z" fill="#5480FE"/>
<path d="M288.719 184.194L269.916 156.867C269.916 156.867 275.493 184.329 291.508 189.421L288.719 184.194Z" fill="#5480FE"/>
<path d="M275.404 154.266C275.404 154.266 254.203 140.324 253.388 137.977C253.388 137.977 264.689 158.244 284.292 161.107L275.404 154.266Z" fill="#5480FE"/>
<path d="M273.92 147.68C273.92 147.68 249.343 125.023 243.293 125.284C243.293 125.284 262.863 125.436 274.441 146.396L273.92 147.68Z" fill="#5480FE"/>
<path d="M294.37 205.846L293.506 205.998C287.716 170.066 280.459 148.98 272.998 146.633L273.251 145.788C281.136 148.254 288.434 169.036 294.37 205.846Z" fill="#444053"/>
<path d="M304.106 291.931L302.809 292.1C302.41 288.722 302.075 285.293 301.798 281.865C299.45 252.021 296.506 224.652 293.212 204.174L293.929 203.178C297.191 223.69 300.754 251.869 303.111 281.713C303.372 285.167 303.714 288.604 304.106 291.931Z" fill="#444053"/>
<path d="M410.068 451.458C409.831 451.357 386.47 441.654 361.69 417.257C347.181 402.982 334.948 386.417 325.445 368.177C313.564 345.377 305.786 317.07 302.508 289.406L303.894 290.014C311.232 352.099 340.212 393.596 362.84 415.889C387.375 440.066 410.476 449.668 410.704 449.778L410.068 451.458Z" fill="#444053"/>
<g opacity="0.7">
<path opacity="0.7" d="M426.303 423.912C426.303 423.912 436.789 420.323 444.486 427.112C444.486 427.112 440.352 431.782 429.32 428.134L426.303 423.912Z" fill="#5480FE"/>
<path opacity="0.7" d="M425.12 423.929C425.12 423.929 419.625 433.86 424.517 443.03C424.517 443.03 429.76 439.762 428.513 427.83L425.12 423.929Z" fill="#5480FE"/>
<path opacity="0.7" d="M416.689 410.569C416.689 410.569 419.722 401.66 438.705 410.223C438.705 410.223 437.27 416.134 429.589 416.979C421.908 417.823 419.38 414.547 416.689 410.569Z" fill="#5480FE"/>
<path opacity="0.7" d="M415.499 410.206C415.499 410.206 406.391 410.654 408.845 431.985C408.845 431.985 414.699 432.255 417.676 424.874C420.652 417.494 418.393 413.972 415.499 410.206Z" fill="#5480FE"/>
<path opacity="0.7" d="M407.63 394.161C407.63 394.161 410.402 378.893 430.249 386.088C430.249 386.088 428.154 400.022 410.272 398.755L407.63 394.161Z" fill="#5480FE"/>
<path opacity="0.7" d="M398.652 373.514C398.652 373.514 405.852 357.343 424.745 368.059C424.745 368.059 421.003 382.727 400.878 378.471L398.652 373.514Z" fill="#5480FE"/>
<path opacity="0.7" d="M393.426 353.323C393.426 353.323 402.395 338.081 421.149 348.67C421.149 348.67 412.506 362.182 393.964 356.743L393.426 353.323Z" fill="#5480FE"/>
<path opacity="0.7" d="M388.59 333.681C388.59 333.681 397.608 317.822 415.621 328.378C415.621 328.378 404.915 342.843 389.104 336.958L388.59 333.681Z" fill="#5480FE"/>
<path opacity="0.7" d="M386.821 315.812C386.821 315.812 395.79 295.841 412.62 305.527C412.62 305.527 402.403 323.117 387.343 319.232L386.821 315.812Z" fill="#5480FE"/>
<path opacity="0.7" d="M386.307 294.684C386.307 294.684 396.01 274.737 412.653 285.986C412.653 285.986 400.283 303.939 386.821 297.952L386.307 294.684Z" fill="#5480FE"/>
<path opacity="0.7" d="M387.579 275.506C387.579 275.506 399.745 256.252 413.721 260.77C413.721 260.77 401.09 281.172 387.628 280.074L387.579 275.506Z" fill="#5480FE"/>
<path opacity="0.7" d="M390.009 257.122C390.009 257.122 403.871 233.722 414.863 238.907C414.863 238.907 404.776 256.928 389.381 261.192L390.009 257.122Z" fill="#5480FE"/>
<path opacity="0.7" d="M394.298 235.546C394.298 235.546 406.611 216.267 418.173 218.598C418.173 218.598 408.119 238.147 393.107 241.128L394.298 235.546Z" fill="#5480FE"/>
<path opacity="0.7" d="M398.065 215.414C398.065 215.414 412.066 196.574 419.69 198.195C419.69 198.195 410.565 218.04 397.91 219.104L398.065 215.414Z" fill="#5480FE"/>
<path opacity="0.7" d="M401.922 196.751C401.922 196.751 413.134 175.175 421.125 175.361C421.125 175.361 415.189 193.939 402.224 198.685L401.922 196.751Z" fill="#5480FE"/>
<path opacity="0.7" d="M405.387 171.89C405.387 171.89 415.645 155.069 422.446 153.962C422.446 153.962 415.596 175.268 405.624 176.763L405.387 171.89Z" fill="#5480FE"/>
<path opacity="0.7" d="M407.165 155.415L414.504 122.743C414.504 122.743 419.453 150.331 406.513 161.36L407.165 155.415Z" fill="#5480FE"/>
<path opacity="0.7" d="M406.798 120.8C406.798 120.8 404.809 94.8838 403.186 93.0176C403.186 93.0176 415.197 112.829 408.486 132.116L406.798 120.8Z" fill="#5480FE"/>
<path opacity="0.7" d="M407.108 393.874C407.108 393.874 393.246 387.904 388.207 409.075C388.207 409.075 400.609 414.893 409.407 398.696L407.108 393.874Z" fill="#5480FE"/>
<path opacity="0.7" d="M398.122 372.754C398.122 372.754 381.545 368.059 377.289 389.948C377.289 389.948 390.539 396.425 400.348 377.737L398.122 372.754Z" fill="#5480FE"/>
<path opacity="0.7" d="M392.903 354.674C392.903 354.674 379.751 343.139 365.18 359.327C365.18 359.327 377.5 369.317 393.434 358.094L392.903 354.674Z" fill="#5480FE"/>
<path opacity="0.7" d="M388.207 333.749C388.207 333.749 374.818 321.647 360.948 337.582C360.948 337.582 375.519 347.8 388.72 337.034L388.207 333.749Z" fill="#5480FE"/>
<path opacity="0.7" d="M386.894 316.327C386.894 316.327 375.878 297.487 360.165 309.023C360.165 309.023 372.176 325.355 386.723 319.781L386.894 316.327Z" fill="#5480FE"/>
<path opacity="0.7" d="M387.285 294.414C387.285 294.414 376.261 275.219 360.377 287.658C360.377 287.658 373.929 304.674 386.959 297.732L387.285 294.414Z" fill="#5480FE"/>
<path opacity="0.7" d="M389.259 275.329C389.259 275.329 382.646 253.373 368.009 253.753C368.009 253.753 374.769 276.958 387.987 279.703L389.259 275.329Z" fill="#5480FE"/>
<path opacity="0.7" d="M390.376 257.097C390.376 257.097 384.937 230.226 372.91 231.265C372.91 231.265 376.53 251.76 389.642 261.15L390.376 257.097Z" fill="#5480FE"/>
<path opacity="0.7" d="M395.399 234.558C395.399 234.558 388.329 212.602 376.571 211.757C376.571 211.757 381.398 233.342 395.146 240.241L395.399 234.558Z" fill="#5480FE"/>
<path opacity="0.7" d="M399.435 215.346C399.435 215.346 395.643 191.904 388.174 189.616C388.174 189.616 387.212 211.572 397.902 218.682L399.435 215.346Z" fill="#5480FE"/>
<path opacity="0.7" d="M402.452 196.397C402.452 196.397 397.698 172.397 389.993 170.218C389.993 170.218 390.531 189.751 401.629 198.179L402.452 196.397Z" fill="#5480FE"/>
<path opacity="0.7" d="M406.692 173.647C406.692 173.647 403.569 154.013 397.723 150.247C397.723 150.247 396.002 172.634 404.629 178.047L406.692 173.647Z" fill="#5480FE"/>
<path opacity="0.7" d="M406.415 154.554L396.312 122.675C396.312 122.675 393.743 150.618 407.573 160.414L406.415 154.554Z" fill="#5480FE"/>
<path opacity="0.7" d="M402.297 121.881C402.297 121.881 386.062 102.036 385.989 99.5369C385.989 99.5369 390.955 122.337 408.82 131.137L402.297 121.881Z" fill="#5480FE"/>
<path opacity="0.7" d="M402.77 115.134C402.77 115.134 385.818 85.9241 379.939 84.3112C379.939 84.3112 398.595 90.4926 403.586 114.07L402.77 115.134Z" fill="#5480FE"/>
<path opacity="0.7" d="M405.583 176.966L404.719 176.839C409.514 140.755 408.617 118.377 402.191 113.842L402.689 113.099C409.497 117.904 410.5 139.978 405.583 176.966Z" fill="#5480FE"/>
<path opacity="0.7" d="M390.156 262.155L388.867 261.91C389.455 258.574 390.115 255.154 390.849 251.827C397.176 222.617 402.265 195.578 404.964 174.981L405.934 174.255C403.194 194.851 398.465 222.845 392.121 252.089C391.403 255.467 390.735 258.836 390.156 262.155Z" fill="#5480FE"/>
<path opacity="0.7" d="M445.489 447.101C445.294 446.94 425.773 430.465 409.13 399.549C399.363 381.452 392.43 361.865 388.59 341.518C383.796 316.082 384.513 286.627 389.316 259.25L390.466 260.255C379.661 321.799 395.358 370.339 410.582 398.595C427.061 429.232 446.354 445.53 446.549 445.69L445.489 447.101Z" fill="#5480FE"/>
</g>
<path d="M665.013 229.187L631.581 194.37C629.942 192.634 627.988 191.252 625.83 190.303C623.673 189.354 621.355 188.857 619.011 188.84C616.667 188.824 614.343 189.288 612.173 190.207C610.003 191.126 608.031 192.48 606.369 194.193L396.434 409.767L307.669 317.121C304.373 313.659 299.884 311.694 295.19 311.659C290.495 311.625 285.98 313.522 282.636 316.935L248.846 351.558C245.506 355.012 243.616 359.69 243.584 364.577C243.552 369.465 245.381 374.168 248.675 377.669L383.478 518.373C386.812 521.833 391.328 523.792 396.047 523.827C400.766 523.862 405.309 521.969 408.69 518.559L664.826 255.289C666.501 253.593 667.836 251.57 668.753 249.337C669.67 247.104 670.151 244.705 670.169 242.279C670.186 239.852 669.74 237.446 668.855 235.199C667.97 232.952 666.664 230.909 665.013 229.187Z" fill="#57B894"/>
<g opacity="0.5">
<path opacity="0.5" d="M614.637 508.375C614.637 508.375 589.702 506.821 592.621 524.918C592.471 525.835 592.605 526.778 593.003 527.612C593.402 528.447 594.044 529.129 594.839 529.563C594.839 529.563 594.839 528.22 597.391 528.676C598.288 528.834 599.2 528.88 600.107 528.811C601.329 528.729 602.492 528.233 603.417 527.401V527.401C603.417 527.401 610.422 524.403 613.153 512.53C613.153 512.53 615.167 509.946 615.086 509.279L610.878 511.145C610.878 511.145 612.321 514.286 611.188 516.896C611.188 516.896 611.049 511.255 610.242 511.39C610.079 511.39 608.057 512.479 608.057 512.479C608.057 512.479 610.503 517.951 608.66 521.937C608.66 521.937 609.37 515.181 607.282 512.876L604.322 514.666C604.322 514.666 607.209 520.324 605.252 524.935C605.252 524.935 605.757 517.858 603.694 515.105L601.012 517.267C601.012 517.267 603.727 522.841 602.072 526.674C602.072 526.674 601.86 518.432 600.441 517.808C600.441 517.808 598.093 519.953 597.734 520.839C597.734 520.839 599.593 524.884 598.443 527.021C598.443 527.021 597.734 521.523 597.155 521.506C597.155 521.506 594.815 525.138 594.57 527.629C594.683 525.324 595.377 523.091 596.584 521.152C595.236 521.419 593.992 522.088 593.004 523.077C593.004 523.077 593.363 520.544 597.163 520.273C597.163 520.273 599.096 517.52 599.609 517.352C599.609 517.352 595.834 517.022 593.543 518.078C593.543 518.078 595.557 515.646 600.294 516.752L602.944 514.514C602.944 514.514 597.978 513.805 595.867 514.582C595.867 514.582 598.313 512.437 603.662 513.999L606.548 512.217C606.548 512.217 602.308 511.271 599.78 511.609C599.78 511.609 602.447 510.123 607.396 511.736L609.459 510.773C609.459 510.773 606.353 510.14 605.439 510.047C604.526 509.954 604.485 509.684 604.485 509.684C606.452 509.347 608.47 509.581 610.316 510.359C610.316 510.359 614.711 508.662 614.637 508.375Z" fill="#5480FE"/>
</g>
<g opacity="0.5">
<path opacity="0.5" d="M569.896 381.993C569.896 381.993 557.232 404.295 574.144 409.801C574.866 410.356 575.738 410.662 576.637 410.674C577.536 410.686 578.415 410.404 579.151 409.868C579.151 409.868 578.017 409.218 579.542 407.107C580.083 406.351 580.538 405.532 580.896 404.667C581.372 403.497 581.472 402.2 581.181 400.968V400.968C581.181 400.968 581.776 393.14 572.807 385.235C572.807 385.235 571.494 382.195 570.89 381.967L570.581 386.696C570.581 386.696 573.932 386.798 575.669 389.027C575.669 389.027 570.776 386.595 570.499 387.397C570.45 387.566 570.442 389.931 570.442 389.931C570.442 389.931 576.28 390.133 578.857 393.663C578.857 393.663 573.377 389.948 570.434 390.826L570.63 394.373C570.63 394.373 576.81 394.271 579.893 398.173C579.893 398.173 574.03 394.491 570.727 395.141L571.372 398.603C571.372 398.603 577.406 398.603 579.941 401.888C579.941 401.888 572.758 398.35 571.575 399.355C571.575 399.355 572.391 402.496 572.945 403.231C572.945 403.231 577.275 403.349 578.588 405.384C578.588 405.384 573.541 403.543 573.255 404.067C573.255 404.067 575.326 407.876 577.332 409.235C575.402 408.082 573.796 406.425 572.676 404.43C572.273 405.807 572.273 407.276 572.676 408.652C572.676 408.652 570.63 407.149 572.163 403.586C572.163 403.586 570.662 400.554 570.752 399.997C570.752 399.997 568.762 403.332 568.624 405.908C568.624 405.908 567.449 402.944 570.548 399.068L569.83 395.606C569.83 395.606 566.968 399.878 566.675 402.175C566.675 402.175 565.933 398.958 569.716 394.719L569.488 391.248C569.488 391.248 566.748 394.727 565.9 397.21C565.9 397.21 565.827 394.077 569.455 390.243L569.57 387.904C569.57 387.904 567.613 390.488 567.123 391.282C566.634 392.076 566.381 392 566.381 392C566.98 390.034 568.095 388.279 569.602 386.933C569.602 386.933 570.173 382.052 569.896 381.993Z" fill="#5480FE"/>
</g>
<g opacity="0.5">
<path opacity="0.5" d="M490.695 204.056C490.695 204.056 478.04 226.367 494.944 231.864C495.664 232.422 496.537 232.729 497.436 232.741C498.336 232.753 499.216 232.47 499.95 231.932C499.95 231.932 498.817 231.281 500.35 229.17C500.889 228.414 501.34 227.595 501.695 226.73C502.175 225.562 502.275 224.263 501.981 223.031V223.031C501.981 223.031 502.584 215.203 493.606 207.299C493.606 207.299 492.294 204.267 491.69 204.039L491.38 208.76C491.38 208.76 494.74 208.861 496.468 211.09C496.468 211.09 491.576 208.658 491.307 209.461C491.25 209.629 491.25 211.994 491.25 211.994C491.25 211.994 497.08 212.197 499.657 215.726C499.657 215.726 494.177 212.011 491.234 212.889L491.437 216.436C491.437 216.436 497.61 216.334 500.692 220.236C500.692 220.236 494.83 216.562 491.527 217.204L492.171 220.667C492.171 220.667 498.205 220.667 500.749 223.96C500.749 223.96 493.558 220.413 492.375 221.427C492.375 221.427 493.191 224.56 493.753 225.294C493.753 225.294 498.075 225.412 499.388 227.448C499.388 227.448 494.34 225.607 494.063 226.13C494.063 226.13 496.126 229.947 498.14 231.298C496.208 230.148 494.6 228.495 493.476 226.502C493.086 227.863 493.086 229.312 493.476 230.673C493.476 230.673 491.429 229.17 492.962 225.564C492.962 225.564 491.462 222.533 491.552 221.975C491.552 221.975 489.562 225.311 489.423 227.887C489.423 227.887 488.249 224.923 491.356 221.047L490.63 217.584C490.63 217.584 487.768 221.857 487.483 224.154C487.483 224.154 486.733 220.937 490.516 216.698L490.288 213.227C490.288 213.227 487.548 216.706 486.7 219.189C486.7 219.189 486.627 216.056 490.255 212.23L490.369 209.883C490.369 209.883 488.412 212.467 487.923 213.261C487.434 214.054 487.181 213.978 487.181 213.978C487.794 212.009 488.923 210.255 490.443 208.912C490.443 208.912 490.973 204.157 490.695 204.056Z" fill="#5480FE"/>
</g>
<g opacity="0.5">
<path opacity="0.5" d="M218.056 35.0874C218.056 35.0874 170.926 70.5548 202.123 98.6501C202.123 98.6501 205.654 105.304 212.772 103.624C212.772 103.624 210.929 101.141 216.107 98.1012C217.943 97.0091 219.645 95.6937 221.179 94.1829C223.254 92.1594 224.636 89.4917 225.118 86.5827V86.5827C225.118 86.5827 233.451 70.4197 221.375 44.8663C221.375 44.8663 221.301 37.1057 220.201 36.0332L215.308 45.8459C215.308 45.8459 222.394 49.2997 224.098 55.743C224.098 55.743 215.773 45.7867 214.509 47.2983C214.256 47.5939 212.128 52.6185 212.128 52.6185C212.128 52.6185 224.433 58.6817 226.765 68.7139C226.765 68.7139 218.382 55.4727 211.272 54.51L208.508 62.2875C208.508 62.2875 221.807 68.0383 224.889 79.3541C224.889 79.3541 215.659 65.8427 208.01 64.0271L206.282 72.058C206.282 72.058 219.149 77.927 221.652 87.3596C221.652 87.3596 209.421 72.8518 206.004 73.9242C206.004 73.9242 204.847 81.3893 205.458 83.5258C205.458 83.5258 214.607 87.9592 215.585 93.5749C215.585 93.5749 206.445 84.7756 205.368 85.6201C205.368 85.6201 206.363 95.7536 209.494 100.626C209.494 100.626 204.365 93.7945 203.844 85.8649C203.844 85.8649 200.345 90.0873 200.15 94.8247C200.15 94.8247 197.116 89.6313 203.632 83.3991C203.632 83.3991 203.167 75.4612 203.86 74.3634C203.86 74.3634 196.586 79.5737 193.969 84.9783C193.969 84.9783 194.124 77.5132 204.243 72.2184L205.809 64.12C205.809 64.12 195.853 70.4788 193.17 75.098C193.17 75.098 194.466 67.4979 206.363 62.0764L209.005 54.434C209.005 54.434 200.036 59.239 195.959 63.7231C195.959 63.7231 198.625 56.9674 209.821 52.2638L212.161 47.3659C212.161 47.3659 205.637 50.9971 203.884 52.2131C202.131 53.4291 201.642 53.0576 201.642 53.0576C204.696 49.4255 208.666 46.7444 213.107 45.3138C213.107 45.3138 218.602 35.4843 218.056 35.0874Z" fill="#5480FE"/>
</g>
<g opacity="0.5">
<path opacity="0.5" d="M172.271 152.122C172.271 152.122 111.303 125.572 103.312 173.444C103.312 173.444 99.1452 180.909 104.943 187.074C104.943 187.074 106.19 183.764 112.086 187.184C114.188 188.388 116.422 189.329 118.739 189.987C121.869 190.881 125.194 190.698 128.214 189.464V189.464C128.214 189.464 148.257 188.341 165.128 161.174C165.128 161.174 172.352 156.547 172.719 154.807L160.627 155.651C160.627 155.651 161.556 164.814 156.55 170.311C156.55 170.311 160.994 156.091 158.857 155.694C158.425 155.609 152.473 156.42 152.473 156.42C152.473 156.42 154.014 172.355 145.95 180.597C145.95 180.597 153.435 164.392 150.173 156.707L141.261 158.489C141.261 158.489 143.707 175.251 134.884 184.996C134.884 184.996 142.133 167.769 139.337 159.021L130.791 161.993C130.791 161.993 132.854 178.384 125.475 186.483C125.475 186.483 131.916 165.701 128.883 162.838C128.883 162.838 121.202 166.064 119.555 167.905C119.555 167.905 120.778 179.727 116.081 183.992C116.081 183.992 118.968 169.636 117.541 169.045C117.541 169.045 108.612 176.003 105.889 182.007C105.889 182.007 109.289 172.836 116.415 167.651C116.415 167.651 110.43 166.596 105.815 169.197C105.815 169.197 108.906 163.108 118.576 165.996C118.576 165.996 125.744 160.853 127.179 160.929C127.179 160.929 118.03 156.707 111.417 157.231C111.417 157.231 118.503 153.008 129.413 160.059L137.918 156.867C137.918 156.867 126.103 150.593 120.175 150.618C120.175 150.618 128.051 147.46 140.136 156.243L148.861 154.376C148.861 154.376 139.076 148.169 132.471 146.734C132.471 146.734 140.388 145.433 151.372 153.954L157.341 153.439C157.341 153.439 150.116 149.031 147.931 147.958C145.746 146.886 145.844 146.193 145.844 146.193C151.045 147.129 155.892 149.544 159.844 153.169C159.844 153.169 172.214 152.907 172.271 152.122Z" fill="#5480FE"/>
</g>
<g opacity="0.5">
<path opacity="0.5" d="M135.765 85.0881C135.765 85.0881 114.149 33.3478 83.0737 57.0772C83.0737 57.0772 76.4933 59.0533 76.5504 66.113C76.5504 66.113 79.1108 64.8801 80.7253 70.3944C81.3272 72.3477 82.1483 74.2211 83.1715 75.9763C84.5375 78.356 86.616 80.2091 89.0914 81.2542C89.0914 81.2542 101.616 92.418 126.6 86.2281C126.6 86.2281 133.441 87.7397 134.616 86.929L126.975 80.2831C126.975 80.2831 122.49 86.2788 116.473 86.5659C116.473 86.5659 126.934 80.7391 125.883 79.2444C125.671 78.9404 121.691 75.9172 121.691 75.9172C121.691 75.9172 113.839 86.2872 104.568 86.4477C104.568 86.4477 117.932 81.2289 120.215 74.7518L113.937 70.5295C113.937 70.5295 106.052 81.9551 95.4597 82.5547C95.4597 82.5547 109.24 76.6012 112.396 69.7442L105.685 66.5099C105.685 66.5099 97.8896 77.4879 89.0751 77.9017C89.0751 77.9017 104.331 69.3557 104.095 65.8681C104.095 65.8681 97.7591 63.2503 95.7532 63.4023C95.7532 63.4023 89.9883 71.1291 84.8431 70.9096C84.8431 70.9096 94.4567 64.0778 93.9267 62.8872C93.9267 62.8872 84.7942 61.7556 79.8773 63.7316C79.8773 63.7316 86.9387 60.2862 94.0246 61.4178C94.0246 61.4178 91.0483 57.2546 86.8898 56.0977C86.8898 56.0977 92.0839 54.299 96.2343 61.7134C96.2343 61.7134 103.32 62.8956 104.144 63.7738C104.144 63.7738 101.045 55.8443 96.8051 52.2723C96.8051 52.2723 103.328 53.9612 105.946 64.5761L112.754 67.709C112.754 67.709 109.191 57.0013 105.652 53.5305C105.652 53.5305 112.07 56.3003 114.418 68.6464L120.607 72.6914C120.607 72.6914 118.21 63.2334 115.087 58.4791C115.087 58.4791 120.501 62.3805 122.344 73.9243L126.176 77.1332C126.176 77.1332 124.301 70.2593 123.591 68.3339C122.882 66.4086 123.33 66.0539 123.33 66.0539C125.902 69.677 127.452 73.9687 127.807 78.4506C127.807 78.4506 135.309 85.5356 135.765 85.0881Z" fill="#5480FE"/>
</g>
<g opacity="0.5">
<path opacity="0.5" d="M557.069 112.01C557.069 112.01 551.973 86.6757 535.869 94.3687C534.973 94.4575 534.127 94.8379 533.454 95.4554C532.78 96.0729 532.312 96.8957 532.118 97.8057C532.118 97.8057 533.382 97.4932 533.618 100.128C533.708 101.063 533.902 101.984 534.197 102.872C534.604 104.071 535.374 105.101 536.391 105.811C536.391 105.811 541.022 112.026 552.789 111.638C552.789 111.638 555.732 112.972 556.336 112.719L553.49 109.003C553.49 109.003 550.938 111.266 548.214 110.819C548.214 110.819 553.433 109.206 553.107 108.429C553.033 108.269 551.516 106.529 551.516 106.529C551.516 106.529 547.064 110.439 542.865 109.62C542.865 109.62 549.331 108.556 550.946 105.862L548.499 103.371C548.499 103.371 543.982 107.745 539.171 106.993C539.171 106.993 545.898 105.642 547.929 102.864L545.205 100.753C545.205 100.753 540.72 104.925 536.717 104.274C536.717 104.274 544.341 101.893 544.545 100.305C544.545 100.305 541.935 98.5235 541.014 98.3968C541.014 98.3968 537.752 101.319 535.445 100.728C535.445 100.728 540.337 98.5826 540.248 97.9915C540.248 97.9915 536.244 96.6066 533.855 97.0203C536.032 96.5317 538.294 96.6394 540.419 97.3328C539.819 96.0526 538.869 94.9836 537.687 94.2589C537.687 94.2589 540.182 93.9465 541.389 97.6368C541.389 97.6368 544.463 98.8444 544.757 99.3257C544.757 99.3257 544.072 95.4665 542.49 93.4145C542.49 93.4145 545.279 94.7909 545.499 99.8239L548.279 101.884C548.279 101.884 547.635 96.7332 546.355 94.8247C546.355 94.8247 548.989 96.691 548.94 102.425L551.386 104.84C551.386 104.84 551.158 100.356 550.179 97.9239C550.179 97.9239 552.258 100.196 552.055 105.524L553.49 107.34C553.49 107.34 553.27 104.072 553.123 103.117C552.976 102.163 553.204 102.062 553.204 102.062C554.038 103.941 554.351 106.022 554.109 108.074C554.109 108.074 556.825 112.162 557.069 112.01Z" fill="#5480FE"/>
</g>
<g opacity="0.5">
<path opacity="0.5" d="M469.316 581.632C469.316 581.632 464.227 556.298 448.115 563.991C447.218 564.08 446.371 564.46 445.696 565.077C445.021 565.695 444.552 566.518 444.356 567.428C444.356 567.428 445.62 567.116 445.856 569.751C445.944 570.687 446.142 571.608 446.443 572.495C446.849 573.692 447.615 574.722 448.629 575.434V575.434C448.629 575.434 453.26 581.649 465.035 581.261C465.035 581.261 467.978 582.595 468.574 582.341L465.736 578.626C465.736 578.626 463.184 580.889 460.452 580.441C460.452 580.441 465.671 578.829 465.344 578.052C465.279 577.891 463.754 576.152 463.754 576.152C463.754 576.152 459.302 580.061 455.103 579.242C455.103 579.242 461.577 578.178 463.184 575.484L460.737 572.951C460.737 572.951 456.269 577.342 451.442 576.565C451.442 576.565 458.169 575.214 460.199 572.436L457.476 570.325C457.476 570.325 452.999 574.496 448.996 573.846C448.996 573.846 456.62 571.473 456.823 569.877C456.823 569.877 454.206 568.095 453.293 567.969C453.293 567.969 450.031 570.891 447.715 570.299C447.715 570.299 452.608 568.155 452.518 567.563C452.518 567.563 448.515 566.178 446.125 566.592C448.305 566.103 450.57 566.211 452.698 566.905C452.095 565.627 451.146 564.558 449.966 563.831C449.966 563.831 452.453 563.518 453.66 567.209C453.66 567.209 456.742 568.416 457.036 568.898C457.036 568.898 456.351 565.038 454.769 562.986C454.769 562.986 457.557 564.363 457.769 569.396L460.558 571.456C460.558 571.456 459.906 566.305 458.626 564.397C458.626 564.397 461.267 566.263 461.219 571.997L463.665 574.412C463.665 574.412 463.436 569.928 462.45 567.496C462.45 567.496 464.537 569.767 464.333 575.096L465.769 576.912C465.769 576.912 465.54 573.643 465.393 572.689C465.247 571.735 465.475 571.642 465.475 571.642C466.309 573.518 466.622 575.597 466.38 577.646C466.38 577.646 469.087 581.759 469.316 581.632Z" fill="#5480FE"/>
</g>
</svg>
