<svg width="1166" height="858" viewBox="0 0 1166 858" fill="none" xmlns="http://www.w3.org/2000/svg">
<g clip-path="url(#clip0)">
<path d="M1003.66 298.87C1003.66 455.1 873.15 581.74 734.19 581.74C595.23 581.74 452.8 455.1 452.8 298.87C452.8 142.64 595.23 16 734.19 16C873.15 16 1003.66 142.65 1003.66 298.87Z" fill="url(#paint0_linear)"/>
<path d="M990.76 298.87C990.76 447.78 866.36 568.5 733.9 568.5C601.44 568.5 465.7 447.79 465.7 298.87C465.7 149.95 601.45 29.24 733.91 29.24C866.37 29.24 990.76 150 990.76 298.87Z" fill="#FC6681"/>
<path d="M809.2 712.51H640.8V858H809.2V712.51Z" fill="url(#paint1_linear)"/>
<path d="M805.38 712.51H645.79V850.43H805.38V712.51Z" fill="#F5F5F5"/>
<path d="M803.41 712.51L810.07 586.48" stroke="#AD7676" stroke-width="2" stroke-miterlimit="10"/>
<path d="M649.73 712.51L640.72 586.48" stroke="#AD7676" stroke-width="2" stroke-miterlimit="10"/>
<path opacity="0.2" d="M731.82 653.22C732.275 653.183 732.73 653.287 733.124 653.518C733.517 653.748 733.83 654.095 734.02 654.51C735.83 650.51 740.1 648.13 744.42 647.57C748.74 647.01 753.1 648.05 757.22 649.46C762.49 651.26 767.64 653.75 771.61 657.65C775.126 660.985 777.312 665.484 777.76 670.31C778.09 664.9 775.48 659.57 771.61 655.76C767.74 651.95 762.49 649.37 757.22 647.57C753.1 646.16 748.73 645.12 744.42 645.68C740.11 646.24 735.83 648.68 734.02 652.62C733.83 652.205 733.517 651.858 733.124 651.628C732.73 651.397 732.275 651.293 731.82 651.33C731.82 652.14 731.82 652.93 731.82 653.69C731.81 653.53 731.81 653.37 731.82 653.22Z" fill="white"/>
<path d="M752.36 577.96H692.76V598.77H752.36V577.96Z" fill="#FC6681"/>
<g opacity="0.2">
<path opacity="0.2" d="M733.91 28.3C730.75 28.3 727.6 28.39 724.44 28.53C853.3 34.09 971.85 152.53 971.85 297.93C971.85 443.33 853.29 561.77 724.44 567.33C727.6 567.47 730.76 567.56 733.91 567.56C866.36 567.56 990.77 446.84 990.77 297.93C990.77 149.02 866.36 28.3 733.91 28.3Z" fill="black"/>
</g>
<g opacity="0.2">
<path opacity="0.2" d="M480.83 298.87C480.83 152.09 612.73 32.7 743.36 29.32C741.47 29.32 739.58 29.24 737.69 29.24C605.24 29.24 469.48 150 469.48 298.87C469.48 447.74 605.24 568.5 737.69 568.5C739.58 568.5 741.47 568.5 743.36 568.42C612.74 565 480.83 445.66 480.83 298.87Z" fill="white"/>
</g>
<path d="M811.02 530.66H639.78V586.48H811.02V530.66Z" fill="#FC6681"/>
<path opacity="0.2" d="M639.77 48.88C639.77 48.88 436.37 281.37 639.77 548.88L706.94 548.65C706.94 548.65 521.51 327.65 698.43 32.1L665.32 39.65L639.77 48.88Z" fill="white"/>
<path opacity="0.2" d="M816.69 45.33C816.69 45.33 1020.09 281.33 816.69 548.87L749.52 548.64C749.52 548.64 934.95 325.76 758.03 30.2L791.12 36.81L816.69 45.33Z" fill="white"/>
<path d="M345.12 52.87C345.12 69.52 330.84 83 315.64 83C300.44 83 284.85 69.5 284.85 52.86C284.85 36.22 300.43 22.72 315.64 22.72C330.85 22.72 345.12 36.23 345.12 52.87Z" fill="url(#paint2_linear)"/>
<path d="M343.71 52.87C343.71 68.74 330.1 81.6 315.61 81.6C301.12 81.6 286.26 68.74 286.26 52.87C286.26 37 301.12 24.14 315.61 24.14C330.1 24.14 343.71 37 343.71 52.87Z" fill="#6C63FF"/>
<path d="M323.85 96.95H305.42V112.45H323.85V96.95Z" fill="url(#paint3_linear)"/>
<path d="M323.43 96.95H305.97V111.65H323.43V96.95Z" fill="#6C63FF"/>
<path d="M323.21 96.95L323.94 83.52" stroke="#AD7676" stroke-width="2" stroke-miterlimit="10"/>
<path d="M306.4 96.95L305.41 83.52" stroke="#AD7676" stroke-width="2" stroke-miterlimit="10"/>
<g opacity="0.2">
<path opacity="0.2" d="M310.12 98.22C310.103 98.3259 310.103 98.434 310.12 98.54C310.115 98.5765 310.115 98.6134 310.12 98.65C310.169 98.5108 310.169 98.3592 310.12 98.22Z" fill="white"/>
<path opacity="0.2" d="M309.67 96.75C309.645 96.9258 309.645 97.1042 309.67 97.28C309.694 97.1042 309.694 96.9258 309.67 96.75V96.75Z" fill="white"/>
</g>
<path d="M317.62 82.62H311.1V84.84H317.62V82.62Z" fill="#6C63FF"/>
<g opacity="0.2">
<path opacity="0.2" d="M315.61 24H314.61C328.71 24.59 341.68 37.22 341.68 52.71C341.68 68.2 328.68 80.83 314.61 81.42H315.61C330.1 81.42 343.71 68.56 343.71 52.69C343.71 36.82 330.12 24 315.61 24Z" fill="black"/>
</g>
<g opacity="0.2">
<path opacity="0.2" d="M287.92 52.87C287.92 37.23 302.35 24.51 316.64 24.15H316.02C301.53 24.15 286.67 37.01 286.67 52.88C286.67 68.75 301.52 81.61 316.02 81.61H316.64C302.35 81.24 287.92 68.52 287.92 52.87Z" fill="white"/>
</g>
<path d="M324.05 77.5699H305.31V83.5199H324.05V77.5699Z" fill="#6C63FF"/>
<path opacity="0.2" d="M305.31 26.23C305.31 26.23 283.05 51 305.31 79.51H312.66C312.66 79.51 292.37 55.96 311.73 24.51L308.11 25.32L305.31 26.23Z" fill="white"/>
<path opacity="0.2" d="M324.66 25.86C324.66 25.86 346.92 51.01 324.66 79.52H317.31C317.31 79.52 337.6 55.77 318.24 24.27L321.86 24.98L324.66 25.86Z" fill="white"/>
<path d="M128.12 497C128.12 520.28 108.12 539.15 86.8999 539.15C65.6799 539.15 43.8999 520.28 43.8999 497C43.8999 473.72 65.6899 454.85 86.8999 454.85C108.11 454.85 128.12 473.74 128.12 497Z" fill="url(#paint4_linear)"/>
<path d="M126.12 497C126.12 519.19 107.12 537.17 86.8301 537.17C66.5401 537.17 45.8301 519.17 45.8301 497C45.8301 474.83 66.6001 456.83 86.8301 456.83C107.06 456.83 126.12 474.83 126.12 497Z" fill="#4D8AF0"/>
<path d="M98.3699 558.64H72.6099V580.32H98.3699V558.64Z" fill="url(#paint5_linear)"/>
<path d="M97.7801 558.64H73.3701V579.19H97.7801V558.64Z" fill="#6C63FF"/>
<path d="M97.4902 558.64L98.5102 539.87" stroke="#AD7676" stroke-width="2" stroke-miterlimit="10"/>
<path d="M73.9801 558.64L72.6001 539.87" stroke="#AD7676" stroke-width="2" stroke-miterlimit="10"/>
<g opacity="0.2">
<path opacity="0.2" d="M79.12 560.42C79.0782 560.566 79.0613 560.718 79.07 560.87C79.0632 560.923 79.0632 560.977 79.07 561.03C79.1566 560.839 79.1743 560.623 79.12 560.42V560.42Z" fill="white"/>
<path opacity="0.2" d="M78.5601 558.36C78.5255 558.605 78.5255 558.855 78.5601 559.1C78.5938 558.854 78.5938 558.606 78.5601 558.36V558.36Z" fill="white"/>
</g>
<path d="M89.6801 538.6H80.5601V541.7H89.6801V538.6Z" fill="#4D8AF0"/>
<g opacity="0.2">
<path opacity="0.2" d="M86.8499 456.7C86.3699 456.7 85.8499 456.7 85.3999 456.7C105.11 457.53 123.25 475.18 123.25 496.84C123.25 518.5 105.12 536.18 85.3999 537C85.8799 537 86.3999 537 86.8499 537C107.11 537 126.14 519 126.14 496.83C126.14 474.66 107.12 456.7 86.8499 456.7Z" fill="black"/>
</g>
<g opacity="0.2">
<path opacity="0.2" d="M48.1202 497C48.1202 475.13 68.3002 457.34 88.2802 456.84H87.4102C67.1502 456.84 46.4102 474.84 46.4102 497.01C46.4102 519.18 67.1802 537.18 87.4102 537.18H88.2802C68.3202 536.67 48.1202 518.88 48.1202 497Z" fill="white"/>
</g>
<path d="M98.6502 531.55H72.4502V539.87H98.6502V531.55Z" fill="#4D8AF0"/>
<path opacity="0.2" d="M72.4498 459.76C72.4498 459.76 41.3298 494.4 72.4498 534.26H82.7298C82.7298 534.26 54.3598 501.33 81.4298 457.26L76.3598 458.39L72.4498 459.76Z" fill="white"/>
<path opacity="0.2" d="M99.5202 459.24C99.5202 459.24 130.64 494.41 99.5202 534.24H89.2402C89.2402 534.24 117.61 501 90.5402 457L95.6102 458L99.5202 459.24Z" fill="white"/>
<path d="M439.12 431.1C439.12 457.67 416.33 479.2 392.07 479.2C367.81 479.2 342.94 457.66 342.94 431.1C342.94 404.54 367.76 383 392.02 383C416.28 383 439.12 404.54 439.12 431.1Z" fill="#57B894"/>
<path d="M436.82 431.1C436.82 456.43 415.12 477 391.98 477C368.84 477 345.12 456.43 345.12 431.1C345.12 405.77 368.82 385.25 391.95 385.25C415.08 385.25 436.82 405.78 436.82 431.1Z" fill="#57B894"/>
<path d="M405.12 501.45H375.72V526.19H405.12V501.45Z" fill="url(#paint6_linear)"/>
<path d="M404.46 501.45H376.59V524.9H404.46V501.45Z" fill="#F2F2F2"/>
<path d="M404.11 501.45L405.27 480.01" stroke="#AD7676" stroke-width="2" stroke-miterlimit="10"/>
<path d="M377.28 501.45L375.71 480.01" stroke="#AD7676" stroke-width="2" stroke-miterlimit="10"/>
<g opacity="0.2">
<path opacity="0.2" d="M383.18 503.47C383.132 503.635 383.112 503.808 383.12 503.98C383.113 504.04 383.113 504.1 383.12 504.16C383.222 503.944 383.243 503.7 383.18 503.47V503.47Z" fill="white"/>
<path opacity="0.2" d="M382.51 501.12C382.47 501.402 382.47 501.688 382.51 501.97C382.549 501.688 382.549 501.402 382.51 501.12V501.12Z" fill="white"/>
</g>
<path d="M395.2 478.57H384.79V482.11H395.2V478.57Z" fill="#47E6B1"/>
<g opacity="0.2">
<path opacity="0.2" d="M391.98 385.09C391.43 385.09 390.88 385.09 390.33 385.09C412.83 386.04 433.53 406.18 433.53 430.9C433.53 455.62 412.83 475.77 390.33 476.71C390.88 476.71 391.43 476.71 391.98 476.71C415.11 476.71 436.83 456.18 436.83 430.86C436.83 405.54 415.12 385.09 391.98 385.09Z" fill="black"/>
</g>
<g opacity="0.2">
<path opacity="0.2" d="M347.79 431.1C347.79 406.1 370.79 385.84 393.63 385.26H392.63C369.5 385.26 345.8 405.79 345.8 431.11C345.8 456.43 369.51 477 392.64 477H393.64C370.82 476.37 347.79 456.07 347.79 431.1Z" fill="white"/>
</g>
<path d="M405.44 470.52H375.54V480.01H405.44V470.52Z" fill="#47E6B1"/>
<path opacity="0.2" d="M375.54 388.59C375.54 388.59 340.02 428.13 375.54 473.59H387.27C387.27 473.59 354.89 436.01 385.78 385.75L380 387L375.54 388.59Z" fill="white"/>
<path opacity="0.2" d="M406.43 388C406.43 388 441.95 428.14 406.43 473.63H394.7C394.7 473.63 427.08 435.73 396.19 385.46L401.97 386.59L406.43 388Z" fill="white"/>
<path d="M305.12 97.35C305.12 117.06 288.65 133.04 271.12 133.04C253.59 133.04 235.62 117.04 235.62 97.35C235.62 77.66 253.62 61.66 271.12 61.66C288.62 61.66 305.12 77.64 305.12 97.35Z" fill="#57B894"/>
<path d="M303.49 97.35C303.49 116.14 287.8 131.35 271.08 131.35C254.36 131.35 237.24 116.12 237.24 97.35C237.24 78.58 254.37 63.35 271.08 63.35C287.79 63.35 303.49 78.56 303.49 97.35Z" fill="#57B894"/>
<path d="M280.59 149.53H259.34V167.89H280.59V149.53Z" fill="url(#paint7_linear)"/>
<path d="M280.1 149.53H259.97V166.93H280.1V149.53Z" fill="#E6E6E6"/>
<path d="M279.86 149.53L280.7 133.63" stroke="#AD7676" stroke-width="2" stroke-miterlimit="10"/>
<path d="M260.47 149.53L259.33 133.63" stroke="#AD7676" stroke-width="2" stroke-miterlimit="10"/>
<g opacity="0.2">
<path opacity="0.2" d="M264.73 151C264.709 151.126 264.709 151.254 264.73 151.38C264.724 151.426 264.724 151.474 264.73 151.52C264.789 151.352 264.789 151.168 264.73 151V151Z" fill="white"/>
<path opacity="0.2" d="M264.25 149.29C264.221 149.499 264.221 149.711 264.25 149.92C264.278 149.711 264.278 149.499 264.25 149.29V149.29Z" fill="white"/>
</g>
<path d="M273.42 132.56H265.9V135.19H273.42V132.56Z" fill="#47E6B1"/>
<g opacity="0.2">
<path opacity="0.2" d="M271.12 63.21H269.93C286.19 63.91 301.14 78.86 301.14 97.21C301.14 115.56 286.14 130.5 269.93 131.21H271.12C287.83 131.21 303.53 115.98 303.53 97.21C303.53 78.44 287.8 63.21 271.12 63.21Z" fill="black"/>
</g>
<g opacity="0.2">
<path opacity="0.2" d="M239.12 97.35C239.12 78.83 255.76 63.77 272.24 63.35H271.52C254.81 63.35 237.68 78.58 237.68 97.35C237.68 116.12 254.81 131.35 271.52 131.35H272.24C255.8 130.93 239.12 115.87 239.12 97.35Z" fill="white"/>
</g>
<path d="M280.81 126.59H259.21V133.63H280.81V126.59Z" fill="#47E6B1"/>
<path opacity="0.2" d="M259.21 65.8099C259.21 65.8099 233.55 95.1399 259.21 128.89H267.68C267.68 128.89 244.29 101 266.61 63.6899L262.43 64.6899L259.21 65.8099Z" fill="white"/>
<path opacity="0.2" d="M281.53 65.36C281.53 65.36 307.19 95.14 281.53 128.89H273.06C273.06 128.89 296.45 100.77 274.13 63.48L278.31 64.32L281.53 65.36Z" fill="white"/>
<path d="M1023.26 35.25C1023.26 54.72 1007 70.5 989.68 70.5C972.36 70.5 954.62 54.71 954.62 35.25C954.62 15.79 972.37 0 989.68 0C1006.99 0 1023.26 15.78 1023.26 35.25Z" fill="url(#paint8_linear)"/>
<path d="M1021.65 35.25C1021.65 53.8 1006.15 68.85 989.65 68.85C973.15 68.85 956.23 53.85 956.23 35.25C956.23 16.65 973.15 1.65002 989.65 1.65002C1006.15 1.65002 1021.65 16.69 1021.65 35.25Z" fill="#4D8AF0"/>
<path d="M999.03 86.79H978.05V104.92H999.03V86.79Z" fill="url(#paint9_linear)"/>
<path d="M998.56 86.79H978.67V103.98H998.56V86.79Z" fill="#E6E6E6"/>
<path d="M998.31 86.79L999.14 71.08" stroke="#AD7676" stroke-width="2" stroke-miterlimit="10"/>
<path d="M979.16 86.79L978.04 71.08" stroke="#AD7676" stroke-width="2" stroke-miterlimit="10"/>
<g opacity="0.2">
<path opacity="0.2" d="M983.37 88.27C983.349 88.3958 983.349 88.5242 983.37 88.65C983.364 88.6932 983.364 88.7368 983.37 88.78C983.427 88.6148 983.427 88.4352 983.37 88.27V88.27Z" fill="white"/>
<path opacity="0.2" d="M982.89 86.55C982.862 86.7558 982.862 86.9643 982.89 87.17C982.917 86.9643 982.917 86.7558 982.89 86.55V86.55Z" fill="white"/>
</g>
<path d="M991.95 70.02H984.52V72.61H991.95V70.02Z" fill="#FFCC80"/>
<g opacity="0.2">
<path opacity="0.2" d="M989.65 1.53003H988.47C1004.53 2.22003 1019.3 16.99 1019.3 35.1C1019.3 53.21 1004.52 68 988.47 68.7H989.65C1006.15 68.7 1021.65 53.7 1021.65 35.1C1021.65 16.5 1006.12 1.53003 989.65 1.53003Z" fill="black"/>
</g>
<g opacity="0.2">
<path opacity="0.2" d="M958.12 35.25C958.12 16.96 974.56 2.08003 990.83 1.66003H990.12C973.62 1.66003 956.7 16.66 956.7 35.26C956.7 53.86 973.62 68.86 990.12 68.86H990.83C974.55 68.41 958.12 53.54 958.12 35.25Z" fill="white"/>
</g>
<path d="M999.26 64.13H977.92V71.09H999.26V64.13Z" fill="#FFCC80"/>
<path opacity="0.2" d="M977.92 4.1C977.92 4.1 952.58 33.1 977.92 66.4H986.29C986.29 66.4 963.18 38.83 985.22 2L981.09 2.94L977.92 4.1Z" fill="white"/>
<path opacity="0.2" d="M999.96 3.65004C999.96 3.65004 1025.3 33.06 999.96 66.39H991.59C991.59 66.39 1014.7 38.62 992.65 1.79004L996.78 2.62004L999.96 3.65004Z" fill="white"/>
<path d="M1162.37 42.19C1162.37 62.85 1145.11 79.6 1126.73 79.6C1108.35 79.6 1089.51 62.85 1089.51 42.19C1089.51 21.53 1108.35 4.78003 1126.73 4.78003C1145.11 4.78003 1162.37 21.53 1162.37 42.19Z" fill="url(#paint10_linear)"/>
<path d="M1160.66 42.19C1160.66 61.89 1144.21 77.85 1126.66 77.85C1109.11 77.85 1091.19 61.85 1091.19 42.19C1091.19 22.53 1109.19 6.53003 1126.66 6.53003C1144.13 6.53003 1160.66 22.49 1160.66 42.19Z" fill="#6C63FF"/>
<path d="M1136.65 96.9H1114.38V116.14H1136.65V96.9Z" fill="url(#paint11_linear)"/>
<path d="M1136.15 96.9H1115.04V115.14H1136.15V96.9Z" fill="#6C63FF"/>
<path d="M1135.88 96.9L1136.76 80.23" stroke="#AD7676" stroke-width="2" stroke-miterlimit="10"/>
<path d="M1115.56 96.9L1114.37 80.23" stroke="#AD7676" stroke-width="2" stroke-miterlimit="10"/>
<g opacity="0.2">
<path opacity="0.2" d="M1120.02 98.47C1120 98.6024 1120 98.7375 1120.02 98.87C1120.01 98.9165 1120.01 98.9635 1120.02 99.01C1120.08 98.835 1120.08 98.6449 1120.02 98.47V98.47Z" fill="white"/>
<path opacity="0.2" d="M1119.52 96.64C1119.49 96.859 1119.49 97.0811 1119.52 97.3C1119.55 97.081 1119.55 96.859 1119.52 96.64V96.64Z" fill="white"/>
</g>
<path d="M1129.13 79.1H1121.25V81.85H1129.13V79.1Z" fill="#6C63FF"/>
<g opacity="0.2">
<path opacity="0.2" d="M1126.69 6.40002H1125.44C1142.44 7.14002 1158.16 22.81 1158.16 42.03C1158.16 61.25 1142.48 77 1125.44 77.7H1126.69C1144.21 77.7 1160.69 61.7 1160.69 42.04C1160.69 22.38 1144.21 6.40002 1126.69 6.40002Z" fill="black"/>
</g>
<g opacity="0.2">
<path opacity="0.2" d="M1093.22 42.19C1093.22 22.78 1110.67 6.99004 1127.94 6.54004H1127.19C1109.67 6.54004 1091.72 22.54 1091.72 42.2C1091.72 61.86 1109.72 77.86 1127.19 77.86H1127.94C1110.66 77.39 1093.22 61.6 1093.22 42.19Z" fill="white"/>
</g>
<path d="M1136.89 72.85H1114.24V80.23H1136.89V72.85Z" fill="#6C63FF"/>
<path opacity="0.2" d="M1114.24 9.12003C1114.24 9.12003 1087.34 39.87 1114.24 75.25H1123.12C1123.12 75.25 1098.6 46 1122 6.90002L1117.62 7.90002L1114.24 9.12003Z" fill="white"/>
<path opacity="0.2" d="M1137.64 8.65994C1137.64 8.65994 1164.54 39.8799 1137.64 75.2599H1128.76C1128.76 75.2599 1153.29 45.7799 1129.89 6.68994L1134.27 7.56994L1137.64 8.65994Z" fill="white"/>
<path d="M1165.21 436.8C1165.21 457.13 1148.21 473.6 1130.15 473.6C1112.09 473.6 1093.54 457.12 1093.54 436.8C1093.54 416.48 1112.07 400 1130.12 400C1148.17 400 1165.21 416.48 1165.21 436.8Z" fill="#57B894"/>
<path d="M1163.53 436.8C1163.53 456.17 1147.34 471.88 1130.11 471.88C1112.88 471.88 1095.21 456.17 1095.21 436.8C1095.21 417.43 1112.87 401.72 1130.11 401.72C1147.35 401.72 1163.53 417.43 1163.53 436.8Z" fill="#57B894"/>
<path d="M1139.91 490.62H1118V509.55H1139.91V490.62Z" fill="url(#paint12_linear)"/>
<path d="M1139.41 490.62H1118.65V508.56H1139.41V490.62Z" fill="#E6E6E6"/>
<path d="M1139.16 490.62L1140.02 474.22" stroke="#AD7676" stroke-width="2" stroke-miterlimit="10"/>
<path d="M1119.16 490.62L1117.99 474.22" stroke="#AD7676" stroke-width="2" stroke-miterlimit="10"/>
<g opacity="0.2">
<path opacity="0.2" d="M1123.55 492.17C1123.53 492.299 1123.53 492.431 1123.55 492.56C1123.54 492.607 1123.54 492.654 1123.55 492.7C1123.61 492.528 1123.61 492.342 1123.55 492.17V492.17Z" fill="white"/>
<path opacity="0.2" d="M1123.06 490.37C1123.03 490.586 1123.03 490.804 1123.06 491.02C1123.09 490.804 1123.09 490.586 1123.06 490.37Z" fill="white"/>
</g>
<path d="M1132.51 473.12H1124.76V475.83H1132.51V473.12Z" fill="#47E6B1"/>
<g opacity="0.2">
<path opacity="0.2" d="M1130.12 401.6H1128.89C1145.66 402.32 1161.08 417.74 1161.08 436.65C1161.08 455.56 1145.66 470.98 1128.89 471.7H1130.12C1147.35 471.7 1163.54 455.99 1163.54 436.62C1163.54 417.25 1147.34 401.6 1130.12 401.6Z" fill="black"/>
</g>
<g opacity="0.2">
<path opacity="0.2" d="M1097.18 436.8C1097.18 417.7 1114.34 402.17 1131.34 401.73H1130.6C1113.37 401.73 1095.7 417.44 1095.7 436.81C1095.7 456.18 1113.36 471.89 1130.6 471.89H1131.34C1114.34 471.44 1097.18 455.9 1097.18 436.8Z" fill="white"/>
</g>
<path d="M1140.14 466.96H1117.86V474.22H1140.14V466.96Z" fill="#47E6B1"/>
<path opacity="0.2" d="M1117.86 404.28C1117.86 404.28 1091.4 434.53 1117.86 469.33H1126.6C1126.6 469.33 1102.47 440.58 1125.49 402.12L1121.18 403.12L1117.86 404.28Z" fill="white"/>
<path opacity="0.2" d="M1140.88 403.82C1140.88 403.82 1167.34 434.53 1140.88 469.34H1132.14C1132.14 469.34 1156.27 440.34 1133.25 401.89L1137.56 402.75L1140.88 403.82Z" fill="white"/>
</g>
<defs>
<linearGradient id="paint0_linear" x1="728.23" y1="581.75" x2="728.23" y2="16" gradientUnits="userSpaceOnUse">
<stop stop-color="#808080" stop-opacity="0.25"/>
<stop offset="0.54" stop-color="#808080" stop-opacity="0.12"/>
<stop offset="1" stop-color="#808080" stop-opacity="0.1"/>
</linearGradient>
<linearGradient id="paint1_linear" x1="122731" y1="125543" x2="122731" y2="104376" gradientUnits="userSpaceOnUse">
<stop stop-color="#808080" stop-opacity="0.25"/>
<stop offset="0.54" stop-color="#808080" stop-opacity="0.12"/>
<stop offset="1" stop-color="#808080" stop-opacity="0.1"/>
</linearGradient>
<linearGradient id="paint2_linear" x1="19924.4" y1="6172.48" x2="19924.4" y2="2538.2" gradientUnits="userSpaceOnUse">
<stop stop-color="#808080" stop-opacity="0.25"/>
<stop offset="0.54" stop-color="#808080" stop-opacity="0.12"/>
<stop offset="1" stop-color="#808080" stop-opacity="0.1"/>
</linearGradient>
<linearGradient id="paint3_linear" x1="6104.05" y1="1840.08" x2="6104.05" y2="1599.67" gradientUnits="userSpaceOnUse">
<stop stop-color="#808080" stop-opacity="0.25"/>
<stop offset="0.54" stop-color="#808080" stop-opacity="0.12"/>
<stop offset="1" stop-color="#808080" stop-opacity="0.1"/>
</linearGradient>
<linearGradient id="paint4_linear" x1="8201.45" y1="47507.7" x2="8201.45" y2="40402.1" gradientUnits="userSpaceOnUse">
<stop stop-color="#808080" stop-opacity="0.25"/>
<stop offset="0.54" stop-color="#808080" stop-opacity="0.12"/>
<stop offset="1" stop-color="#808080" stop-opacity="0.1"/>
</linearGradient>
<linearGradient id="paint5_linear" x1="2274.83" y1="13140" x2="2274.83" y2="12670" gradientUnits="userSpaceOnUse">
<stop stop-color="#808080" stop-opacity="0.25"/>
<stop offset="0.54" stop-color="#808080" stop-opacity="0.12"/>
<stop offset="1" stop-color="#808080" stop-opacity="0.1"/>
</linearGradient>
<linearGradient id="paint6_linear" x1="11854.1" y1="13519.4" x2="11854.1" y2="12907.3" gradientUnits="userSpaceOnUse">
<stop stop-color="#808080" stop-opacity="0.25"/>
<stop offset="0.54" stop-color="#808080" stop-opacity="0.12"/>
<stop offset="1" stop-color="#808080" stop-opacity="0.1"/>
</linearGradient>
<linearGradient id="paint7_linear" x1="5996.2" y1="3231.99" x2="5996.2" y2="2894.9" gradientUnits="userSpaceOnUse">
<stop stop-color="#808080" stop-opacity="0.25"/>
<stop offset="0.54" stop-color="#808080" stop-opacity="0.12"/>
<stop offset="1" stop-color="#808080" stop-opacity="0.1"/>
</linearGradient>
<linearGradient id="paint8_linear" x1="69582.3" y1="6309.04" x2="69582.3" y2="1339.5" gradientUnits="userSpaceOnUse">
<stop stop-color="#808080" stop-opacity="0.25"/>
<stop offset="0.54" stop-color="#808080" stop-opacity="0.12"/>
<stop offset="1" stop-color="#808080" stop-opacity="0.1"/>
</linearGradient>
<linearGradient id="paint9_linear" x1="21717.7" y1="1988.99" x2="21717.7" y2="1660.29" gradientUnits="userSpaceOnUse">
<stop stop-color="#808080" stop-opacity="0.25"/>
<stop offset="0.54" stop-color="#808080" stop-opacity="0.12"/>
<stop offset="1" stop-color="#808080" stop-opacity="0.1"/>
</linearGradient>
<linearGradient id="paint10_linear" x1="83918.2" y1="7382.03" x2="83918.2" y2="1784" gradientUnits="userSpaceOnUse">
<stop stop-color="#808080" stop-opacity="0.25"/>
<stop offset="0.54" stop-color="#808080" stop-opacity="0.12"/>
<stop offset="1" stop-color="#808080" stop-opacity="0.1"/>
</linearGradient>
<linearGradient id="paint11_linear" x1="26179.5" y1="2331.43" x2="26179.5" y2="1961.26" gradientUnits="userSpaceOnUse">
<stop stop-color="#808080" stop-opacity="0.25"/>
<stop offset="0.54" stop-color="#808080" stop-opacity="0.12"/>
<stop offset="1" stop-color="#808080" stop-opacity="0.1"/>
</linearGradient>
<linearGradient id="paint12_linear" x1="25853.3" y1="10136.4" x2="25853.3" y2="9778.05" gradientUnits="userSpaceOnUse">
<stop stop-color="#808080" stop-opacity="0.25"/>
<stop offset="0.54" stop-color="#808080" stop-opacity="0.12"/>
<stop offset="1" stop-color="#808080" stop-opacity="0.1"/>
</linearGradient>
<clipPath id="clip0">
<rect width="1165.21" height="858" fill="white"/>
</clipPath>
</defs>
</svg>
